# MagicaVoxel @ Ephtracy

# group
o body

# material
mtllib TestPanzer-8-body.mtl
usemtl palette

# normals
vn 0 0 1
vn 0 0 -1
vn 1 0 0
vn -1 0 0
vn 0 -1 0
vn 0 1 0

# texcoords
vt 0.306641 0.5
vt 0.978516 0.5
vt 0.986328 0.5

# verts
v 1.1 0.7 1.9
v 0.8 0.7 1.9
v -0.8 0.7 1.9
v -1.1 0.7 1.9
v 1.1 0.9 1.9
v 0.8 0.9 1.9
v -0.8 0.9 1.9
v -1.1 0.9 1.9
v 1.1 1 1.9
v 0.8 1 1.9
v -0.8 1 1.9
v -1.1 1 1.9
v 1.1 0.3 1.8
v 0.8 0.3 1.8
v -0.8 0.3 1.8
v -1.1 0.3 1.8
v 0.8 0.5 1.8
v -0.8 0.5 1.8
v 1.1 0.7 1.8
v 0.8 0.7 1.8
v -0.8 0.7 1.8
v -1.1 0.7 1.8
v 0.8 0.9 1.8
v -0.8 0.9 1.8
v 0.8 1 1.8
v -0.8 1 1.8
v 0.8 0.3 1.7
v -0.8 0.3 1.7
v 0.8 0.5 1.7
v -0.8 0.5 1.7
v 1.1 0.1 1.6
v 0.9 0.1 1.6
v -0.8 0.1 1.6
v -1.1 0.1 1.6
v 1.1 0.3 1.6
v 0.9 0.3 1.6
v -0.8 0.3 1.6
v -1.1 0.3 1.6
v 0.9 0.1 1.5
v 0.8 0.1 1.5
v -0.8 0.1 1.5
v 0.9 0.3 1.5
v 0.8 0.3 1.5
v -0.8 0.3 1.5
v 1.1 0 1.4
v 0.9 0 1.4
v -0.8 0 1.4
v -1.1 0 1.4
v 1.1 0.1 1.4
v 0.9 0.1 1.4
v -0.8 0.1 1.4
v -1.1 0.1 1.4
v 1.1 0.1 -1.4
v 0.9 0.1 -1.4
v -0.9 0.1 -1.4
v -1.1 0.1 -1.4
v -0.9 0.2 -1.4
v -1.1 0.2 -1.4
v 1.1 0.3 -1.4
v 0.9 0.3 -1.4
v -0.9 0.2 -1.5
v -1.1 0.2 -1.5
v -0.9 0.3 -1.5
v -1.1 0.3 -1.5
v -0.9 0.3 -1.6
v -1.1 0.3 -1.6
v -0.9 0.4 -1.6
v -1.1 0.4 -1.6
v 1.1 0.3 -1.7
v 0.9 0.3 -1.7
v -0.9 0.4 -1.7
v -1.1 0.4 -1.7
v 1.1 0.5 -1.7
v 0.9 0.5 -1.7
v -0.9 0.5 -1.7
v -1.1 0.5 -1.7
v 1.1 0.5 -1.8
v 0.9 0.5 -1.8
v -0.9 0.5 -1.8
v -1.1 0.5 -1.8
v 1.1 0.8 -1.8
v 0.9 0.8 -1.8
v -0.9 0.8 -1.8
v -1.1 0.8 -1.8
v -0.9 0.4 1.7
v -1.1 0.4 1.7
v -0.9 0.8 1.7
v -1.1 0.8 1.7
v 1.1 0.5 1.6
v 0.9 0.5 1.6
v 1.1 0.8 1.6
v 0.9 0.8 1.6
v -0.9 0.3 1.5
v -1.1 0.3 1.5
v -0.9 0.4 1.5
v -1.1 0.4 1.5
v -0.9 0.2 1.4
v -1.1 0.2 1.4
v 1.1 0.3 1.4
v 0.9 0.3 1.4
v -0.9 0.3 1.4
v -1.1 0.3 1.4
v 1.1 0.5 1.4
v 0.9 0.5 1.4
v -0.9 0.1 1.3
v -1.1 0.1 1.3
v -0.9 0.2 1.3
v -1.1 0.2 1.3
v 1.1 0.1 1.2
v 0.9 0.1 1.2
v 1.1 0.3 1.2
v 0.9 0.3 1.2
v 1.1 0 -1.5
v 0.9 0 -1.5
v 0.9 0.1 -1.5
v 1.1 0.2 -1.5
v 0.9 0.2 -1.5
v -0.8 0 -1.6
v -1.1 0 -1.6
v -0.8 0.1 -1.6
v -1.1 0.1 -1.6
v -0.8 0.1 -1.7
v -1.1 0.1 -1.7
v -0.8 0.3 -1.7
v -1.1 0.3 -1.7
v 0.9 0.1 -1.8
v 0.8 0.1 -1.8
v -0.8 0.1 -1.8
v 1.1 0.2 -1.8
v 0.9 0.2 -1.8
v -0.8 0.3 -1.8
v -1.1 0.3 -1.8
v 1.1 0.4 -1.8
v 0.8 0.4 -1.8
v -0.8 0.4 -1.8
v -1.1 0.4 -1.8
v 1.1 0.4 -1.9
v 0.8 0.4 -1.9
v -0.8 0.4 -1.9
v -1.1 0.4 -1.9
v 1.1 0.9 -1.9
v 0.8 0.9 -1.9
v -0.8 0.9 -1.9
v -1.1 0.9 -1.9
v 1.1 1 -1.9
v -1.1 1 -1.9
v 1.1 0.7 1.9
v 1.1 0.9 1.9
v 1.1 1 1.9
v 1.1 0.3 1.8
v 1.1 0.7 1.8
v 1.1 0.1 1.6
v 1.1 0.3 1.6
v 1.1 0.5 1.6
v 1.1 0.8 1.6
v 1.1 0 1.4
v 1.1 0.1 1.4
v 1.1 0.3 1.4
v 1.1 0.5 1.4
v 1.1 0.1 1.2
v 1.1 0.3 1.2
v 1.1 0.1 -1.4
v 1.1 0.3 -1.4
v 1.1 0 -1.5
v 1.1 0.2 -1.5
v 1.1 0.3 -1.7
v 1.1 0.5 -1.7
v 1.1 0.2 -1.8
v 1.1 0.4 -1.8
v 1.1 0.5 -1.8
v 1.1 0.8 -1.8
v 1.1 0.4 -1.9
v 1.1 0.9 -1.9
v 1.1 1 -1.9
v 0.9 0.5 1.6
v 0.9 0.8 1.6
v 0.9 0.3 1.4
v 0.9 0.5 1.4
v 0.9 0.1 1.2
v 0.9 0.3 1.2
v 0.9 0.1 -1.4
v 0.9 0.3 -1.4
v 0.9 0.1 -1.5
v 0.9 0.2 -1.5
v 0.9 0.3 -1.7
v 0.9 0.5 -1.7
v 0.9 0.1 -1.8
v 0.9 0.2 -1.8
v 0.9 0.5 -1.8
v 0.9 0.8 -1.8
v -0.8 0.7 1.9
v -0.8 0.9 1.9
v -0.8 1 1.9
v -0.8 0.3 1.8
v -0.8 0.5 1.8
v -0.8 0.7 1.8
v -0.8 0.9 1.8
v -0.8 1 1.8
v -0.8 0.3 1.7
v -0.8 0.5 1.7
v -0.8 0.1 1.6
v -0.8 0.3 1.6
v -0.8 0.1 1.5
v -0.8 0.3 1.5
v -0.8 0 1.4
v -0.8 0.1 1.4
v -0.8 0 -1.6
v -0.8 0.1 -1.6
v 0.9 0.1 1.6
v 0.9 0.3 1.6
v 0.9 0.1 1.5
v 0.9 0.3 1.5
v 0.9 0 1.4
v 0.9 0.1 1.4
v 0.9 0.1 1.2
v 0.9 0.1 -1.4
v 0.9 0 -1.5
v 0.9 0.1 -1.5
v 0.8 0.7 1.9
v 0.8 0.9 1.9
v 0.8 1 1.9
v 0.8 0.3 1.8
v 0.8 0.5 1.8
v 0.8 0.7 1.8
v 0.8 0.9 1.8
v 0.8 1 1.8
v 0.8 0.3 1.7
v 0.8 0.5 1.7
v -0.8 0.1 -1.7
v -0.8 0.3 -1.7
v -0.8 0.1 -1.8
v -0.8 0.3 -1.8
v -0.9 0.4 1.7
v -0.9 0.8 1.7
v -0.9 0.3 1.5
v -0.9 0.4 1.5
v -0.9 0.2 1.4
v -0.9 0.3 1.4
v -0.9 0.1 1.3
v -0.9 0.2 1.3
v -0.9 0.1 -1.4
v -0.9 0.2 -1.4
v -0.9 0.2 -1.5
v -0.9 0.3 -1.5
v -0.9 0.3 -1.6
v -0.9 0.4 -1.6
v -0.9 0.4 -1.7
v -0.9 0.5 -1.7
v -0.9 0.5 -1.8
v -0.9 0.8 -1.8
v -1.1 0.7 1.9
v -1.1 0.9 1.9
v -1.1 1 1.9
v -1.1 0.3 1.8
v -1.1 0.7 1.8
v -1.1 0.4 1.7
v -1.1 0.8 1.7
v -1.1 0.1 1.6
v -1.1 0.3 1.6
v -1.1 0.3 1.5
v -1.1 0.4 1.5
v -1.1 0 1.4
v -1.1 0.1 1.4
v -1.1 0.2 1.4
v -1.1 0.3 1.4
v -1.1 0.1 1.3
v -1.1 0.2 1.3
v -1.1 0.1 -1.4
v -1.1 0.2 -1.4
v -1.1 0.2 -1.5
v -1.1 0.3 -1.5
v -1.1 0 -1.6
v -1.1 0.1 -1.6
v -1.1 0.3 -1.6
v -1.1 0.4 -1.6
v -1.1 0.1 -1.7
v -1.1 0.3 -1.7
v -1.1 0.4 -1.7
v -1.1 0.5 -1.7
v -1.1 0.3 -1.8
v -1.1 0.4 -1.8
v -1.1 0.5 -1.8
v -1.1 0.8 -1.8
v -1.1 0.4 -1.9
v -1.1 0.9 -1.9
v -1.1 1 -1.9
v 1.1 0 1.4
v 1.1 0 -1.5
v 0.9 0 1.4
v 0.9 0 -1.5
v -0.8 0 1.4
v -0.8 0 -1.6
v -1.1 0 1.4
v -1.1 0 -1.6
v 1.1 0.1 1.6
v 1.1 0.1 1.4
v 0.9 0.1 1.6
v 0.9 0.1 1.5
v 0.9 0.1 1.4
v 0.9 0.1 1.2
v 0.9 0.1 -1.4
v 0.9 0.1 -1.5
v 0.9 0.1 -1.8
v 0.8 0.1 1.5
v 0.8 0.1 1.2
v 0.8 0.1 -1.4
v 0.8 0.1 -1.8
v -0.8 0.1 1.6
v -0.8 0.1 1.5
v -0.8 0.1 1.4
v -0.8 0.1 -1.6
v -0.8 0.1 -1.7
v -0.8 0.1 -1.8
v -1.1 0.1 1.6
v -1.1 0.1 1.4
v -1.1 0.1 -1.6
v -1.1 0.1 -1.7
v 1.1 0.2 -1.5
v 1.1 0.2 -1.8
v 0.9 0.2 -1.5
v 0.9 0.2 -1.8
v 1.1 0.3 1.8
v 1.1 0.3 1.6
v 0.9 0.3 1.6
v 0.9 0.3 1.5
v 0.8 0.3 1.8
v 0.8 0.3 1.7
v 0.8 0.3 1.5
v -0.8 0.3 1.8
v -0.8 0.3 1.7
v -0.8 0.3 1.6
v -0.8 0.3 1.5
v -0.8 0.3 -1.7
v -0.8 0.3 -1.8
v -1.1 0.3 1.8
v -1.1 0.3 1.6
v -1.1 0.3 -1.7
v -1.1 0.3 -1.8
v 1.1 0.4 -1.8
v 1.1 0.4 -1.9
v 0.8 0.4 -1.8
v 0.8 0.4 -1.9
v -0.8 0.4 -1.8
v -0.8 0.4 -1.9
v -1.1 0.4 -1.8
v -1.1 0.4 -1.9
v 0.8 0.5 1.8
v 0.8 0.5 1.7
v -0.8 0.5 1.8
v -0.8 0.5 1.7
v 1.1 0.7 1.9
v 1.1 0.7 1.8
v 0.8 0.7 1.9
v 0.8 0.7 1.8
v -0.8 0.7 1.9
v -0.8 0.7 1.8
v -1.1 0.7 1.9
v -1.1 0.7 1.8
v 1.1 0.8 1.6
v 1.1 0.8 -1.8
v 0.9 0.8 1.6
v 0.9 0.8 -1.8
v -0.9 0.8 1.7
v -0.9 0.8 -1.8
v -1.1 0.8 1.7
v -1.1 0.8 -1.8
v 1.1 0.1 1.2
v 1.1 0.1 -1.4
v 0.9 0.1 1.2
v 0.9 0.1 -1.4
v -0.9 0.1 1.3
v -0.9 0.1 -1.4
v -1.1 0.1 1.3
v -1.1 0.1 -1.4
v -0.9 0.2 1.4
v -0.9 0.2 1.3
v -0.9 0.2 -1.4
v -0.9 0.2 -1.5
v -1.1 0.2 1.4
v -1.1 0.2 1.3
v -1.1 0.2 -1.4
v -1.1 0.2 -1.5
v 1.1 0.3 1.4
v 1.1 0.3 1.2
v 1.1 0.3 -1.4
v 1.1 0.3 -1.7
v 0.9 0.3 1.4
v 0.9 0.3 1.2
v 0.9 0.3 -1.4
v 0.9 0.3 -1.7
v -0.9 0.3 1.5
v -0.9 0.3 1.4
v -0.9 0.3 -1.5
v -0.9 0.3 -1.6
v -1.1 0.3 1.5
v -1.1 0.3 1.4
v -1.1 0.3 -1.5
v -1.1 0.3 -1.6
v -0.9 0.4 1.7
v -0.9 0.4 1.5
v -0.9 0.4 -1.6
v -0.9 0.4 -1.7
v -1.1 0.4 1.7
v -1.1 0.4 1.5
v -1.1 0.4 -1.6
v -1.1 0.4 -1.7
v 1.1 0.5 1.6
v 1.1 0.5 1.4
v 1.1 0.5 -1.7
v 1.1 0.5 -1.8
v 0.9 0.5 1.6
v 0.9 0.5 1.4
v 0.9 0.5 -1.7
v 0.9 0.5 -1.8
v -0.9 0.5 -1.7
v -0.9 0.5 -1.8
v -1.1 0.5 -1.7
v -1.1 0.5 -1.8
v 1.1 1 1.9
v 1.1 1 -1.9
v 0.8 1 1.9
v 0.8 1 1.8
v -0.8 1 1.9
v -0.8 1 1.8
v -1.1 1 1.9
v -1.1 1 -1.9

# faces
f 5/3/1 2/3/1 1/3/1
f 6/3/1 2/3/1 5/3/1
f 7/3/1 4/3/1 3/3/1
f 8/3/1 4/3/1 7/3/1
f 9/1/1 6/1/1 5/1/1
f 10/1/1 6/1/1 9/1/1
f 11/1/1 8/1/1 7/1/1
f 12/1/1 8/1/1 11/1/1
f 17/3/1 14/3/1 13/3/1
f 18/3/1 16/3/1 15/3/1
f 19/3/1 17/3/1 13/3/1
f 20/1/1 18/1/1 17/1/1
f 20/3/1 17/3/1 19/3/1
f 21/3/1 16/3/1 18/3/1
f 21/1/1 18/1/1 20/1/1
f 22/3/1 16/3/1 21/3/1
f 23/1/1 21/1/1 20/1/1
f 24/1/1 21/1/1 23/1/1
f 25/1/1 24/1/1 23/1/1
f 26/1/1 24/1/1 25/1/1
f 29/1/1 28/1/1 27/1/1
f 30/1/1 28/1/1 29/1/1
f 35/3/1 32/3/1 31/3/1
f 36/3/1 32/3/1 35/3/1
f 37/3/1 34/3/1 33/3/1
f 38/3/1 34/3/1 37/3/1
f 42/3/1 40/3/1 39/3/1
f 43/1/1 41/1/1 40/1/1
f 43/3/1 40/3/1 42/3/1
f 44/1/1 41/1/1 43/1/1
f 49/3/1 46/3/1 45/3/1
f 50/3/1 46/3/1 49/3/1
f 51/3/1 48/3/1 47/3/1
f 52/3/1 48/3/1 51/3/1
f 57/3/1 56/3/1 55/3/1
f 58/3/1 56/3/1 57/3/1
f 59/3/1 54/3/1 53/3/1
f 60/3/1 54/3/1 59/3/1
f 63/3/1 62/3/1 61/3/1
f 64/3/1 62/3/1 63/3/1
f 67/3/1 66/3/1 65/3/1
f 68/3/1 66/3/1 67/3/1
f 73/3/1 70/3/1 69/3/1
f 74/3/1 70/3/1 73/3/1
f 75/3/1 72/3/1 71/3/1
f 76/3/1 72/3/1 75/3/1
f 81/3/1 78/3/1 77/3/1
f 82/3/1 78/3/1 81/3/1
f 83/3/1 80/3/1 79/3/1
f 84/3/1 80/3/1 83/3/1
f 85/3/2 86/3/2 87/3/2
f 87/3/2 86/3/2 88/3/2
f 89/3/2 90/3/2 91/3/2
f 91/3/2 90/3/2 92/3/2
f 93/3/2 94/3/2 95/3/2
f 95/3/2 94/3/2 96/3/2
f 97/3/2 98/3/2 101/3/2
f 101/3/2 98/3/2 102/3/2
f 99/3/2 100/3/2 103/3/2
f 103/3/2 100/3/2 104/3/2
f 105/3/2 106/3/2 107/3/2
f 107/3/2 106/3/2 108/3/2
f 109/3/2 110/3/2 111/3/2
f 111/3/2 110/3/2 112/3/2
f 113/3/2 114/3/2 115/3/2
f 113/3/2 115/3/2 116/3/2
f 116/3/2 115/3/2 117/3/2
f 118/3/2 119/3/2 120/3/2
f 120/3/2 119/3/2 121/3/2
f 122/3/2 123/3/2 124/3/2
f 124/3/2 123/3/2 125/3/2
f 126/3/2 127/3/2 130/3/2
f 127/1/2 128/1/2 131/1/2
f 129/3/2 130/3/2 133/3/2
f 130/3/2 127/3/2 134/3/2
f 133/3/2 130/3/2 134/3/2
f 127/1/2 131/1/2 134/1/2
f 131/3/2 132/3/2 135/3/2
f 134/1/2 131/1/2 135/1/2
f 135/3/2 132/3/2 136/3/2
f 137/3/2 138/3/2 141/3/2
f 138/1/2 139/1/2 142/1/2
f 141/3/2 138/3/2 142/3/2
f 139/3/2 140/3/2 143/3/2
f 142/1/2 139/1/2 143/1/2
f 143/3/2 140/3/2 144/3/2
f 141/1/2 142/1/2 145/1/2
f 142/1/2 143/1/2 145/1/2
f 143/1/2 144/1/2 145/1/2
f 145/1/2 144/1/2 146/1/2
f 151/3/3 148/3/3 147/3/3
f 153/3/3 151/3/3 150/3/3
f 154/3/3 151/3/3 153/3/3
f 155/3/3 148/3/3 151/3/3
f 155/3/3 151/3/3 154/3/3
f 157/3/3 154/3/3 153/3/3
f 157/3/3 153/3/3 152/3/3
f 158/3/3 154/3/3 157/3/3
f 159/3/3 154/3/3 158/3/3
f 160/3/3 157/3/3 156/3/3
f 160/3/3 158/3/3 157/3/3
f 161/3/3 158/3/3 160/3/3
f 162/3/3 160/3/3 156/3/3
f 164/3/3 162/3/3 156/3/3
f 164/3/3 163/3/3 162/3/3
f 165/3/3 163/3/3 164/3/3
f 166/3/3 163/3/3 165/3/3
f 168/3/3 166/3/3 165/3/3
f 168/3/3 167/3/3 166/3/3
f 169/3/3 167/3/3 168/3/3
f 170/3/3 167/3/3 169/3/3
f 171/3/3 148/3/3 155/3/3
f 172/3/3 170/3/3 169/3/3
f 172/3/3 171/3/3 170/3/3
f 173/1/3 149/1/3 148/1/3
f 173/3/3 171/3/3 172/3/3
f 173/3/3 148/3/3 171/3/3
f 174/1/3 149/1/3 173/1/3
f 178/2/3 176/2/3 175/2/3
f 180/2/3 178/2/3 177/2/3
f 181/2/3 180/2/3 179/2/3
f 182/2/3 178/2/3 180/2/3
f 182/2/3 180/2/3 181/2/3
f 185/2/3 178/2/3 182/2/3
f 186/2/3 176/2/3 178/2/3
f 186/2/3 178/2/3 185/2/3
f 187/3/3 184/3/3 183/3/3
f 188/3/3 184/3/3 187/3/3
f 189/2/3 176/2/3 186/2/3
f 190/2/3 176/2/3 189/2/3
f 196/3/3 192/3/3 191/3/3
f 197/1/3 193/1/3 192/1/3
f 197/3/3 192/3/3 196/3/3
f 198/1/3 193/1/3 197/1/3
f 199/3/3 195/3/3 194/3/3
f 200/3/3 195/3/3 199/3/3
f 203/3/3 202/3/3 201/3/3
f 204/3/3 202/3/3 203/3/3
f 207/3/3 206/3/3 205/3/3
f 208/3/3 206/3/3 207/3/3
f 209/3/4 210/3/4 211/3/4
f 211/3/4 210/3/4 212/3/4
f 213/3/4 214/3/4 215/3/4
f 213/3/4 215/3/4 216/3/4
f 213/3/4 216/3/4 217/3/4
f 217/3/4 216/3/4 218/3/4
f 219/3/4 220/3/4 224/3/4
f 220/1/4 221/1/4 225/1/4
f 224/3/4 220/3/4 225/3/4
f 225/1/4 221/1/4 226/1/4
f 222/3/4 223/3/4 227/3/4
f 227/3/4 223/3/4 228/3/4
f 229/1/4 230/1/4 231/1/4
f 231/1/4 230/1/4 232/1/4
f 233/2/4 234/2/4 236/2/4
f 235/2/4 236/2/4 238/2/4
f 237/2/4 238/2/4 240/2/4
f 239/2/4 240/2/4 241/2/4
f 240/2/4 238/2/4 242/2/4
f 241/2/4 240/2/4 242/2/4
f 242/2/4 238/2/4 243/2/4
f 238/2/4 236/2/4 244/2/4
f 243/2/4 238/2/4 244/2/4
f 244/2/4 236/2/4 245/2/4
f 236/2/4 234/2/4 246/2/4
f 245/2/4 236/2/4 246/2/4
f 246/2/4 234/2/4 247/2/4
f 247/2/4 234/2/4 248/2/4
f 248/2/4 234/2/4 249/2/4
f 249/2/4 234/2/4 250/2/4
f 251/3/4 252/3/4 255/3/4
f 254/3/4 255/3/4 256/3/4
f 255/3/4 252/3/4 257/3/4
f 256/3/4 255/3/4 257/3/4
f 254/3/4 256/3/4 259/3/4
f 259/3/4 256/3/4 260/3/4
f 258/3/4 259/3/4 260/3/4
f 260/3/4 256/3/4 261/3/4
f 258/3/4 260/3/4 263/3/4
f 263/3/4 260/3/4 264/3/4
f 264/3/4 260/3/4 265/3/4
f 262/3/4 263/3/4 266/3/4
f 263/3/4 264/3/4 266/3/4
f 266/3/4 264/3/4 267/3/4
f 262/3/4 266/3/4 268/3/4
f 268/3/4 269/3/4 270/3/4
f 268/3/4 270/3/4 272/3/4
f 270/3/4 271/3/4 272/3/4
f 262/3/4 268/3/4 272/3/4
f 272/3/4 271/3/4 273/3/4
f 273/3/4 271/3/4 274/3/4
f 273/3/4 274/3/4 276/3/4
f 274/3/4 275/3/4 276/3/4
f 276/3/4 275/3/4 277/3/4
f 277/3/4 275/3/4 278/3/4
f 277/3/4 278/3/4 280/3/4
f 278/3/4 279/3/4 280/3/4
f 280/3/4 279/3/4 281/3/4
f 281/3/4 279/3/4 282/3/4
f 257/3/4 252/3/4 283/3/4
f 281/3/4 282/3/4 284/3/4
f 282/3/4 283/3/4 284/3/4
f 252/1/4 253/1/4 285/1/4
f 284/3/4 283/3/4 285/3/4
f 283/3/4 252/3/4 285/3/4
f 285/1/4 253/1/4 286/1/4
f 289/3/5 288/3/5 287/3/5
f 290/3/5 288/3/5 289/3/5
f 293/3/5 292/3/5 291/3/5
f 294/3/5 292/3/5 293/3/5
f 297/3/5 296/3/5 295/3/5
f 298/3/5 296/3/5 297/3/5
f 299/3/5 296/3/5 298/3/5
f 304/3/5 299/3/5 298/3/5
f 304/3/5 300/3/5 299/3/5
f 305/2/5 301/2/5 300/2/5
f 305/3/5 300/3/5 304/3/5
f 306/3/5 303/3/5 302/3/5
f 306/2/5 301/2/5 305/2/5
f 306/3/5 302/3/5 301/3/5
f 307/3/5 303/3/5 306/3/5
f 309/1/5 305/1/5 304/1/5
f 309/1/5 306/1/5 305/1/5
f 309/1/5 307/1/5 306/1/5
f 310/1/5 307/1/5 309/1/5
f 311/1/5 307/1/5 310/1/5
f 312/1/5 307/1/5 311/1/5
f 313/1/5 307/1/5 312/1/5
f 314/3/5 309/3/5 308/3/5
f 314/3/5 310/3/5 309/3/5
f 315/3/5 310/3/5 314/3/5
f 316/3/5 312/3/5 311/3/5
f 317/3/5 312/3/5 316/3/5
f 320/3/5 319/3/5 318/3/5
f 321/3/5 319/3/5 320/3/5
f 324/3/5 323/3/5 322/3/5
f 326/3/5 324/3/5 322/3/5
f 326/3/5 325/3/5 324/3/5
f 327/3/5 325/3/5 326/3/5
f 328/3/5 325/3/5 327/3/5
f 330/1/5 328/1/5 327/1/5
f 331/1/5 328/1/5 330/1/5
f 332/1/5 328/1/5 331/1/5
f 335/3/5 330/3/5 329/3/5
f 335/3/5 331/3/5 330/3/5
f 336/3/5 331/3/5 335/3/5
f 337/3/5 334/3/5 333/3/5
f 338/3/5 334/3/5 337/3/5
f 341/3/5 340/3/5 339/3/5
f 342/3/5 340/3/5 341/3/5
f 343/1/5 342/1/5 341/1/5
f 344/1/5 342/1/5 343/1/5
f 345/3/5 344/3/5 343/3/5
f 346/3/5 344/3/5 345/3/5
f 349/1/5 348/1/5 347/1/5
f 350/1/5 348/1/5 349/1/5
f 353/3/5 352/3/5 351/3/5
f 354/3/5 352/3/5 353/3/5
f 357/3/5 356/3/5 355/3/5
f 358/3/5 356/3/5 357/3/5
f 361/3/5 360/3/5 359/3/5
f 362/3/5 360/3/5 361/3/5
f 365/3/5 364/3/5 363/3/5
f 366/3/5 364/3/5 365/3/5
f 367/3/6 368/3/6 369/3/6
f 369/3/6 368/3/6 370/3/6
f 371/3/6 372/3/6 373/3/6
f 373/3/6 372/3/6 374/3/6
f 375/3/6 376/3/6 379/3/6
f 379/3/6 376/3/6 380/3/6
f 377/3/6 378/3/6 381/3/6
f 381/3/6 378/3/6 382/3/6
f 383/3/6 384/3/6 387/3/6
f 387/3/6 384/3/6 388/3/6
f 385/3/6 386/3/6 389/3/6
f 389/3/6 386/3/6 390/3/6
f 391/3/6 392/3/6 395/3/6
f 395/3/6 392/3/6 396/3/6
f 393/3/6 394/3/6 397/3/6
f 397/3/6 394/3/6 398/3/6
f 399/3/6 400/3/6 403/3/6
f 403/3/6 400/3/6 404/3/6
f 401/3/6 402/3/6 405/3/6
f 405/3/6 402/3/6 406/3/6
f 407/3/6 408/3/6 411/3/6
f 411/3/6 408/3/6 412/3/6
f 409/3/6 410/3/6 413/3/6
f 413/3/6 410/3/6 414/3/6
f 415/3/6 416/3/6 417/3/6
f 417/3/6 416/3/6 418/3/6
f 419/1/6 420/1/6 421/1/6
f 421/1/6 420/1/6 422/1/6
f 422/1/6 420/1/6 424/1/6
f 423/1/6 424/1/6 425/1/6
f 424/1/6 420/1/6 426/1/6
f 425/1/6 424/1/6 426/1/6
